<svg xmlns="http://www.w3.org/2000/svg" width="500" height="607" fill="none" viewBox="0 0 500 607"><path fill="#F9A857" d="M110.859 276.359C98.2343 263.734 98.2343 243.266 110.859 230.641L248.641 92.8589C261.266 80.2343 281.734 80.2343 294.359 92.8589L432.141 230.641C444.766 243.266 444.766 263.734 432.141 276.359L294.359 414.141C281.734 426.766 261.266 426.766 248.641 414.141L110.859 276.359Z"/><path fill="#fff" d="M172.417 281.013V215.841H184.003V242.996C185.512 240.522 187.533 238.591 190.068 237.203C192.663 235.755 195.62 235.031 198.939 235.031C204.49 235.031 208.775 236.781 211.792 240.281C214.869 243.781 216.408 248.91 216.408 255.669V281.013H204.913V256.755C204.913 252.893 204.128 249.936 202.559 247.884C201.051 245.832 198.637 244.807 195.318 244.807C192.059 244.807 189.344 245.953 187.171 248.246C185.059 250.539 184.003 253.738 184.003 257.841V281.013H172.417Z"/><path fill="#fff" d="M242.966 282.099C239.104 282.099 235.936 281.496 233.461 280.289C230.987 279.022 229.147 277.362 227.94 275.311C226.733 273.259 226.13 270.996 226.13 268.522C226.13 264.358 227.759 260.979 231.017 258.384C234.276 255.789 239.164 254.492 245.681 254.492H257.086V253.406C257.086 250.328 256.211 248.065 254.461 246.617C252.711 245.169 250.539 244.445 247.944 244.445C245.591 244.445 243.539 245.018 241.789 246.164C240.039 247.251 238.953 248.88 238.53 251.052H227.216C227.517 247.794 228.604 244.957 230.474 242.544C232.405 240.13 234.879 238.289 237.897 237.022C240.914 235.695 244.293 235.031 248.035 235.031C254.431 235.031 259.47 236.63 263.151 239.828C266.832 243.026 268.672 247.552 268.672 253.406V281.013H258.806L257.72 273.772C256.392 276.186 254.522 278.177 252.108 279.746C249.754 281.315 246.707 282.099 242.966 282.099ZM245.591 273.048C248.91 273.048 251.474 271.962 253.285 269.789C255.155 267.617 256.332 264.931 256.815 261.733H246.948C243.871 261.733 241.668 262.306 240.341 263.453C239.013 264.539 238.349 265.897 238.349 267.526C238.349 269.276 239.013 270.634 240.341 271.6C241.668 272.565 243.418 273.048 245.591 273.048Z"/><path fill="#fff" d="M301.724 282.099C297.138 282.099 293.095 281.104 289.595 279.112C286.095 277.121 283.319 274.345 281.268 270.785C279.276 267.225 278.281 263.151 278.281 258.565C278.281 253.979 279.276 249.906 281.268 246.345C283.319 242.785 286.095 240.009 289.595 238.018C293.095 236.027 297.138 235.031 301.724 235.031C307.457 235.031 312.285 236.539 316.207 239.557C320.129 242.514 322.634 246.617 323.72 251.867H311.5C310.897 249.695 309.69 248.005 307.879 246.798C306.129 245.531 304.048 244.897 301.634 244.897C298.436 244.897 295.72 246.104 293.487 248.518C291.255 250.932 290.138 254.281 290.138 258.565C290.138 262.85 291.255 266.199 293.487 268.612C295.72 271.026 298.436 272.233 301.634 272.233C304.048 272.233 306.129 271.63 307.879 270.423C309.69 269.216 310.897 267.496 311.5 265.263H323.72C322.634 270.332 320.129 274.406 316.207 277.483C312.285 280.561 307.457 282.099 301.724 282.099Z"/><path fill="#fff" d="M334.003 281.013V215.841H345.589V254.311L361.52 236.117H375.279L356.904 256.574L378.266 281.013H363.783L345.589 258.475V281.013H334.003Z"/><rect width="307.035" height="307.035" x="271.5" y="36.393" stroke="#fff" stroke-width="15" rx="37.5" transform="rotate(45 271.5 36.3934)"/><rect width="143.74" height="143.74" x="138.706" y="395.929" stroke="#fff" stroke-width="10" rx="10" transform="rotate(45 138.706 395.929)"/><rect width="74.428" height="74.428" x="142.706" y="7.929" stroke="#fff" stroke-width="10" rx="10" transform="rotate(45 142.706 7.92893)"/><rect width="143.74" height="143.74" x="13.569" y="268.066" stroke="#fff" stroke-width="10" rx="10" transform="rotate(45 13.5685 268.066)"/><rect width="143.74" height="143.74" x="13.569" y="28.929" stroke="#fff" stroke-width="10" rx="10" transform="rotate(45 13.5685 28.9289)"/></svg>