<?xml version="1.0" standalone="no"?>
<!DOCTYPE svg PUBLIC "-//W3C//DTD SVG 20010904//EN"
 "http://www.w3.org/TR/2001/REC-SVG-20010904/DTD/svg10.dtd">
<svg version="1.0" xmlns="http://www.w3.org/2000/svg"
 width="1718.000000pt" height="542.000000pt" viewBox="0 0 1718.000000 542.000000"
 preserveAspectRatio="xMidYMid meet">

<g transform="translate(0.000000,542.000000) scale(0.100000,-0.100000)"
fill="#000000" stroke="none">
<path d="M560 2910 l0 -1510 1625 0 1625 0 0 1510 0 1510 -1625 0 -1625 0 0
-1510z m2780 1379 c0 -6 9 -8 20 -4 14 4 20 2 20 -9 0 -10 6 -13 16 -9 10 4
22 -1 30 -12 8 -10 17 -16 20 -12 7 7 60 -53 57 -65 -2 -4 5 -4 14 -1 10 4 14
2 9 -5 -3 -6 -2 -13 4 -17 6 -4 8 -11 5 -16 -4 -5 -1 -9 6 -9 6 0 9 -8 6 -20
-3 -10 -1 -20 4 -22 6 -2 10 -364 12 -881 2 -720 0 -877 -11 -877 -9 0 -11 -7
-7 -20 4 -11 2 -20 -4 -20 -6 0 -8 -6 -5 -14 3 -9 -3 -17 -15 -21 -11 -3 -18
-12 -15 -18 2 -7 -7 -24 -21 -37 -14 -13 -25 -20 -25 -16 0 4 -15 -4 -33 -18
-19 -14 -37 -23 -40 -19 -4 3 -7 1 -7 -6 0 -9 -9 -12 -24 -9 -15 3 -27 0 -30
-8 -8 -21 -2491 -21 -2499 0 -3 9 -15 12 -31 9 -16 -3 -26 -1 -26 6 0 7 -4 9
-10 6 -6 -3 -10 -1 -10 4 0 6 -7 11 -15 11 -9 0 -18 7 -22 16 -3 8 -11 13 -18
10 -15 -5 -79 57 -69 67 4 4 2 7 -5 7 -8 0 -11 7 -7 15 3 8 1 15 -5 15 -6 0
-8 9 -4 20 4 13 2 20 -7 20 -11 0 -13 157 -11 877 2 509 7 879 12 881 5 2 7
12 4 22 -3 12 0 20 8 20 7 0 9 3 6 7 -4 3 -2 12 4 20 6 7 9 13 6 13 -3 0 11
17 32 38 20 21 40 36 44 34 5 -2 14 4 21 14 8 10 20 15 29 11 9 -3 18 0 21 8
3 8 12 12 21 9 8 -3 15 -1 15 5 0 8 347 11 1265 11 890 0 1265 -3 1265 -11z
m-832 -2465 c-2 -94 0 -120 10 -117 6 3 12 0 12 -6 0 -6 4 -10 9 -8 5 1 16 -6
23 -16 7 -10 23 -19 35 -20 13 0 25 -7 27 -14 3 -7 11 -13 19 -13 19 0 57 -55
57 -81 0 -12 -3 -19 -7 -16 -3 4 -14 0 -23 -8 -15 -13 -93 -15 -615 -13 l-598
3 -2 35 c-2 47 9 66 45 78 16 6 30 16 30 22 0 6 4 9 9 5 5 -3 12 -1 16 5 4 6
11 8 16 5 5 -4 9 -1 9 4 0 6 7 11 15 11 8 0 15 5 15 10 0 5 6 9 13 7 9 -1 13
30 15 125 l3 128 435 -3 435 -2 -3 -121z"/>
<path d="M910 4100 c0 -6 -7 -10 -15 -10 -8 0 -15 -4 -15 -10 0 -5 -4 -9 -8
-7 -13 4 -69 -48 -64 -61 2 -7 -1 -12 -8 -12 -6 0 -9 -4 -6 -9 4 -5 2 -11 -4
-13 -16 -5 -19 -1338 -2 -1338 10 0 17 -22 10 -32 -3 -6 78 -82 92 -87 8 -3
540 -6 1183 -8 1153 -3 1168 -2 1187 17 11 11 22 20 25 19 3 0 20 11 36 25 17
15 27 26 24 26 -4 0 -2 6 4 13 6 8 8 17 4 20 -3 4 0 7 8 7 12 0 14 96 11 657
-1 362 -5 665 -9 673 -3 8 -5 18 -5 23 1 4 -3 7 -9 7 -6 0 -9 5 -7 12 5 13
-43 58 -61 58 -6 0 -11 5 -11 10 0 6 -7 10 -15 10 -8 0 -15 4 -15 10 0 6 -412
10 -1165 9 -743 0 -1165 -3 -1165 -9z"/>
<path d="M2020 2290 l0 -100 95 0 95 0 0 100 0 100 -95 0 -95 0 0 -100z"/>
<path d="M11560 3941 l0 -119 60 -1 c50 0 62 3 75 21 17 26 20 90 4 119 -14
26 -48 39 -76 28 -21 -8 -23 -6 -23 31 0 33 -3 40 -20 40 -19 0 -20 -7 -20
-119z m116 -17 c4 -14 1 -37 -5 -50 -9 -20 -17 -25 -39 -22 -24 3 -27 7 -30
48 -3 33 1 47 14 57 22 16 52 0 60 -33z"/>
<path d="M10910 3935 l0 -115 50 0 c41 0 56 5 82 28 27 25 32 36 32 79 2 87
-33 123 -119 123 l-45 0 0 -115z m114 63 c9 -12 16 -42 16 -65 0 -52 -26 -83
-70 -83 l-30 0 0 85 0 85 34 0 c25 0 39 -7 50 -22z"/>
<path d="M12355 4025 c-22 -21 -25 -33 -25 -90 0 -57 3 -69 25 -90 15 -16 35
-25 56 -25 20 0 42 -9 56 -22 18 -16 26 -19 35 -10 9 9 7 16 -6 31 -17 18 -17
22 -2 43 31 44 18 144 -23 175 -28 22 -89 16 -116 -12z m106 -21 c7 -9 13 -40
13 -69 0 -61 -15 -85 -55 -85 -36 0 -59 32 -59 85 0 22 7 51 16 63 18 26 65
30 85 6z"/>
<path d="M11300 4010 c0 -11 -7 -20 -15 -20 -8 0 -15 -4 -15 -10 0 -5 7 -10
15 -10 12 0 15 -13 15 -59 0 -75 6 -91 36 -91 27 0 33 24 9 34 -11 4 -15 20
-15 56 0 36 4 52 15 56 8 4 15 10 15 15 0 5 -7 9 -15 9 -8 0 -15 9 -15 20 0
11 -7 20 -15 20 -8 0 -15 -9 -15 -20z"/>
<path d="M11161 3990 c-13 -3 -30 -15 -39 -28 -13 -20 -13 -22 2 -22 10 0 24
7 33 15 19 20 47 16 51 -7 2 -12 -6 -19 -33 -24 -41 -7 -65 -27 -65 -54 0 -34
27 -49 85 -48 l55 2 0 61 c0 86 -28 120 -89 105z m47 -112 c-3 -25 -43 -37
-61 -19 -15 15 10 41 40 41 20 0 24 -4 21 -22z"/>
<path d="M11441 3990 c-13 -3 -30 -15 -39 -28 -13 -20 -13 -22 2 -22 10 0 24
7 33 15 19 20 47 16 51 -7 2 -12 -6 -19 -33 -24 -41 -7 -65 -27 -65 -54 0 -34
27 -49 85 -48 l55 2 0 61 c0 86 -28 120 -89 105z m47 -112 c-3 -25 -43 -37
-61 -19 -15 15 10 41 40 41 20 0 24 -4 21 -22z"/>
<path d="M11791 3990 c-13 -3 -30 -15 -39 -28 -13 -20 -13 -22 2 -22 10 0 24
7 33 15 19 20 47 16 51 -7 2 -12 -6 -19 -33 -24 -41 -7 -65 -27 -65 -54 0 -34
27 -49 85 -48 l55 2 0 61 c0 86 -28 120 -89 105z m47 -112 c-3 -25 -43 -37
-61 -19 -15 15 10 41 40 41 20 0 24 -4 21 -22z"/>
<path d="M11965 3992 c-31 -6 -45 -22 -45 -49 0 -20 9 -29 50 -46 28 -12 49
-26 47 -32 -6 -18 -48 -17 -68 1 -29 26 -48 3 -20 -25 41 -41 126 -18 119 32
-3 19 -18 30 -77 56 -18 9 -17 24 4 36 12 7 20 6 29 -7 13 -18 46 -25 46 -10
-1 26 -49 52 -85 44z"/>
<path d="M12123 3985 c-34 -15 -43 -31 -43 -84 0 -46 33 -81 76 -81 39 0 74
24 58 40 -8 8 -14 9 -18 1 -12 -19 -64 -13 -76 8 -15 30 -14 31 45 31 54 0 55
1 55 28 0 49 -48 78 -97 57z m55 -27 c22 -22 13 -38 -21 -38 -43 0 -51 9 -30
32 19 21 34 23 51 6z"/>
<path d="M12763 3985 c-34 -15 -43 -31 -43 -84 0 -46 33 -81 76 -81 39 0 74
24 58 40 -8 8 -14 9 -18 1 -12 -19 -64 -13 -76 8 -15 30 -14 31 45 31 54 0 55
1 55 28 0 49 -48 78 -97 57z m55 -27 c22 -22 13 -38 -21 -38 -43 0 -51 9 -30
32 19 21 34 23 51 6z"/>
<path d="M12957 3993 c-4 -3 -19 -6 -34 -7 -28 -1 -28 -1 -31 -83 -3 -77 -1
-83 17 -83 18 0 20 8 23 68 3 61 5 67 26 70 12 2 22 10 22 17 0 16 -14 27 -23
18z"/>
<path d="M12550 3924 c0 -94 7 -104 80 -103 l60 1 0 84 c0 77 -2 84 -20 84
-17 0 -19 -8 -22 -67 l-3 -68 -30 0 -30 0 -3 68 c-2 51 -6 67 -17 67 -12 0
-15 -15 -15 -66z"/>
<path d="M12990 3987 c0 -2 11 -37 25 -77 30 -89 31 -106 5 -122 -23 -14 -27
-38 -7 -38 7 0 21 6 30 13 17 13 93 215 83 224 -14 15 -35 -10 -46 -57 -7 -28
-15 -48 -19 -45 -3 4 -13 27 -22 53 -9 27 -23 48 -32 50 -10 2 -17 2 -17 -1z"/>
<path d="M4380 3815 c0 -108 1 -115 20 -115 17 0 20 7 20 50 l0 50 55 0 55 0
0 -50 c0 -38 4 -50 15 -50 12 0 15 19 15 115 0 96 -3 115 -15 115 -11 0 -15
-12 -15 -50 l0 -50 -55 0 -55 0 0 50 c0 43 -3 50 -20 50 -19 0 -20 -7 -20
-115z"/>
<path d="M4590 3915 c0 -10 11 -15 35 -15 l35 0 0 -100 c0 -82 3 -100 15 -100
12 0 15 18 15 100 l0 100 35 0 c24 0 35 5 35 15 0 12 -16 15 -85 15 -69 0 -85
-3 -85 -15z"/>
<path d="M4780 3915 c0 -10 11 -15 35 -15 l35 0 0 -100 c0 -93 1 -100 20 -100
19 0 20 7 20 100 l0 100 35 0 c24 0 35 5 35 15 0 12 -17 15 -90 15 -73 0 -90
-3 -90 -15z"/>
<path d="M4990 3815 c0 -96 3 -115 15 -115 11 0 15 12 15 45 l0 45 44 0 c57 0
89 25 89 70 0 49 -31 70 -104 70 l-59 0 0 -115z m124 63 c18 -29 -4 -53 -53
-56 l-41 -3 0 41 0 41 41 -3 c27 -2 46 -9 53 -20z"/>
<path d="M5270 3815 c0 -96 3 -115 15 -115 11 0 15 12 15 45 0 43 1 45 28 45
23 0 32 -8 50 -45 15 -32 28 -45 42 -45 20 0 20 2 -6 48 l-27 49 21 21 c29 29
28 57 -3 87 -20 21 -34 25 -80 25 l-55 0 0 -115z m104 79 c19 -7 21 -45 4 -62
-7 -7 -27 -12 -45 -12 -32 0 -33 1 -33 40 0 38 2 40 29 40 16 0 36 -3 45 -6z"/>
<path d="M6330 3890 c0 -11 -7 -20 -15 -20 -8 0 -15 -4 -15 -10 0 -5 7 -10 15
-10 12 0 15 -13 15 -59 0 -75 6 -91 36 -91 27 0 33 24 9 34 -11 4 -15 20 -15
56 0 36 4 52 15 56 8 4 15 10 15 15 0 5 -7 9 -15 9 -8 0 -15 9 -15 20 0 11 -7
20 -15 20 -8 0 -15 -9 -15 -20z"/>
<path d="M5503 3865 c-34 -15 -43 -31 -43 -84 0 -46 33 -81 76 -81 39 0 74 24
58 40 -8 8 -14 9 -18 1 -12 -19 -64 -13 -76 8 -15 30 -14 31 45 31 54 0 55 1
55 28 0 49 -48 78 -97 57z m55 -27 c22 -22 13 -38 -21 -38 -43 0 -51 9 -30 32
19 21 34 23 51 6z"/>
<path d="M6205 3872 c-31 -6 -45 -22 -45 -49 0 -20 9 -29 50 -46 28 -12 49
-26 47 -32 -6 -18 -48 -17 -68 1 -29 26 -48 3 -20 -25 41 -41 126 -18 119 32
-3 19 -18 30 -77 56 -18 9 -17 24 4 36 12 7 20 6 29 -7 13 -18 46 -25 46 -10
-1 26 -49 52 -85 44z"/>
<path d="M5653 3862 c-20 -12 -34 -63 -27 -98 9 -47 36 -68 79 -61 34 6 35 5
35 -29 0 -24 5 -34 15 -34 12 0 15 19 15 114 l0 113 -52 1 c-29 1 -58 -2 -65
-6z m68 -22 c22 -12 27 -78 7 -98 -17 -17 -55 -15 -62 4 -12 32 -6 83 12 93
21 13 20 13 43 1z"/>
<path d="M5810 3813 c0 -32 6 -69 13 -83 11 -22 20 -25 70 -27 l57 -1 0 84 c0
68 -3 84 -15 84 -12 0 -15 -13 -15 -57 0 -69 -9 -86 -41 -81 -22 3 -24 8 -27
71 -3 59 -5 67 -22 67 -18 0 -20 -7 -20 -57z"/>
<path d="M6004 3849 c-13 -14 -19 -36 -19 -66 0 -53 28 -83 80 -83 37 0 65 24
48 41 -8 8 -13 7 -17 0 -9 -15 -49 -14 -64 1 -26 26 -13 38 44 38 l57 0 -7 32
c-9 45 -24 58 -66 58 -25 0 -43 -7 -56 -21z m74 -11 c23 -23 13 -38 -23 -38
-39 0 -48 21 -17 39 22 13 26 13 40 -1z"/>
<path d="M13090 3500 l0 -60 -1175 0 -1175 0 0 -140 0 -140 1175 0 1175 0 0
-60 c0 -33 3 -60 8 -60 4 0 66 59 137 130 l130 130 -130 130 c-71 72 -133 130
-137 130 -5 0 -8 -27 -8 -60z m135 -310 l-110 -111 -5 48 -5 48 -1175 5 -1175
5 0 115 0 115 1175 5 1175 5 3 49 3 50 112 -112 112 -112 -110 -110z"/>
<path d="M6570 3370 l0 -60 -1177 -2 -1178 -3 -3 -132 -3 -133 1178 -2 1178
-3 3 -62 c2 -35 6 -63 10 -63 5 0 66 59 137 130 l129 131 -129 129 c-72 72
-133 130 -137 130 -5 0 -8 -27 -8 -60z m132 -312 l-112 -113 0 51 c0 38 -4 53
-16 58 -9 3 -540 6 -1180 6 l-1164 0 0 115 0 115 1178 2 1177 3 3 49 3 50 112
-112 112 -112 -113 -112z"/>
<path d="M7447 3223 c-13 -12 -7 -237 6 -263 7 -14 32 -35 55 -48 38 -21 42
-27 42 -60 l0 -37 506 -295 c279 -162 515 -296 525 -298 14 -3 277 143 604
335 49 29 50 30 53 82 2 29 -1 51 -5 48 -139 -82 -635 -367 -638 -367 -3 0 -5
52 -5 115 0 80 -4 124 -14 143 -10 20 -109 81 -377 236 -200 115 -444 256
-541 313 -170 99 -197 111 -211 96z m105 -140 c25 -28 30 -59 13 -73 -12 -10
-18 -10 -31 1 -25 20 -36 59 -23 75 15 18 23 18 41 -3z m109 -64 c21 -21 23
-69 2 -76 -16 -6 -53 37 -53 62 0 40 20 45 51 14z m115 -74 c20 -30 15 -60
-10 -60 -24 0 -61 48 -53 69 9 24 44 19 63 -9z m502 -295 l232 -134 0 -38 c0
-21 -3 -38 -7 -38 -3 0 -113 62 -244 138 l-239 137 0 43 c0 33 3 41 13 35 8
-4 118 -69 245 -143z"/>
<path d="M7447 2753 c-11 -10 -8 -228 2 -257 6 -13 30 -37 55 -51 42 -24 46
-31 46 -64 l0 -37 412 -240 c631 -366 611 -355 634 -349 24 5 611 340 632 360
8 7 12 29 10 58 l-3 46 -310 -181 c-170 -99 -316 -182 -322 -185 -10 -4 -13
22 -13 110 0 69 -5 127 -12 142 -13 29 -13 29 -493 305 -165 95 -369 212 -454
261 -150 87 -171 96 -184 82z m105 -140 c25 -28 30 -59 13 -73 -12 -10 -18
-10 -31 1 -25 20 -36 59 -23 75 15 18 23 18 41 -3z m118 -74 c13 -24 10 -61
-7 -66 -17 -6 -53 37 -53 64 0 30 44 32 60 2z m114 -83 c7 -18 6 -30 -2 -38
-16 -16 -41 -1 -62 35 -12 21 -12 28 -1 41 12 14 17 15 35 3 12 -8 25 -26 30
-41z m363 -199 c59 -35 166 -97 236 -138 l128 -74 -3 -35 c-2 -19 -7 -35 -11
-35 -4 0 -113 61 -242 135 l-235 135 0 38 c0 20 4 37 9 37 5 0 58 -28 118 -63z"/>
<path d="M4347 2162 c-70 -70 -127 -132 -127 -137 0 -16 255 -267 263 -259 4
4 7 34 7 66 l0 58 1175 0 1175 0 0 135 0 135 -1175 0 -1175 0 0 59 c0 33 -4
62 -8 65 -5 3 -65 -52 -135 -122z m1298 -22 l1175 0 0 -115 0 -115 -1172 -2
-1173 -3 -3 -54 -3 -55 -115 115 -114 114 112 113 113 112 3 -55 3 -55 1174 0z"/>
<path d="M7447 2283 c-13 -12 -7 -237 6 -263 8 -16 67 -56 167 -114 220 -126
588 -338 773 -445 87 -51 166 -91 175 -89 15 3 17 21 20 125 3 121 2 122 -25
152 -15 17 -197 128 -403 247 -751 433 -697 404 -713 387z m124 -170 c7 -20 6
-30 -5 -41 -13 -13 -17 -13 -32 -2 -24 21 -37 60 -23 76 15 19 47 1 60 -33z
m87 -33 c23 -21 30 -64 12 -75 -28 -17 -71 43 -56 80 7 20 18 19 44 -5z m118
-75 c20 -30 15 -60 -10 -60 -24 0 -61 48 -53 69 9 24 44 19 63 -9z m672 -392
c60 -34 62 -36 62 -75 0 -49 11 -53 -184 60 -83 49 -186 108 -228 133 -78 44
-78 44 -78 86 l0 42 183 -106 c100 -58 210 -121 245 -140z"/>
<path d="M10867 2162 c-70 -70 -127 -132 -127 -137 0 -16 255 -267 263 -259 4
4 7 34 7 66 l0 58 1175 0 1175 0 0 135 0 135 -1175 0 -1175 0 0 59 c0 33 -4
62 -8 65 -5 3 -65 -52 -135 -122z m1298 -22 l1175 0 0 -115 0 -115 -1172 -2
-1173 -3 -3 -54 -3 -55 -115 115 -114 114 112 113 113 112 3 -55 3 -55 1174 0z"/>
<path d="M12240 1280 c0 -37 -2 -39 -22 -31 -51 19 -88 -19 -88 -88 0 -59 25
-81 90 -80 l50 2 0 118 c0 99 -3 119 -15 119 -11 0 -15 -11 -15 -40z m-2 -118
c-3 -41 -6 -47 -27 -50 -48 -7 -69 60 -31 98 17 17 24 18 41 10 16 -9 20 -19
17 -58z"/>
<path d="M4540 1195 c0 -96 3 -115 15 -115 11 0 15 12 15 50 l0 50 55 0 55 0
0 -50 c0 -43 3 -50 20 -50 19 0 20 7 20 115 0 108 -1 115 -20 115 -17 0 -20
-7 -20 -51 l0 -50 -52 3 -53 3 -3 48 c-2 33 -7 47 -18 47 -11 0 -14 -21 -14
-115z"/>
<path d="M4740 1295 c0 -10 11 -15 35 -15 l35 0 0 -100 c0 -93 1 -100 20 -100
19 0 20 7 20 100 l0 100 35 0 c24 0 35 5 35 15 0 12 -17 15 -90 15 -73 0 -90
-3 -90 -15z"/>
<path d="M4940 1295 c0 -10 11 -15 35 -15 l35 0 0 -100 c0 -82 3 -100 15 -100
12 0 15 18 15 100 l0 100 35 0 c24 0 35 5 35 15 0 12 -16 15 -85 15 -69 0 -85
-3 -85 -15z"/>
<path d="M5140 1195 c0 -108 1 -115 20 -115 17 0 20 7 20 45 l0 45 45 0 c53 0
85 25 85 68 0 48 -36 72 -108 72 l-62 0 0 -115z m130 65 c18 -34 -4 -60 -50
-60 -40 0 -40 0 -40 40 0 40 0 40 40 40 29 0 42 -5 50 -20z"/>
<path d="M5420 1195 c0 -108 1 -115 20 -115 17 0 20 7 20 45 0 41 2 45 25 45
20 0 30 -9 47 -45 14 -29 29 -45 40 -45 23 0 23 5 -7 55 -24 42 -24 43 -5 60
26 23 26 69 0 95 -16 16 -33 20 -80 20 l-60 0 0 -115z m118 73 c28 -28 -1 -68
-49 -68 -27 0 -29 2 -29 40 0 39 1 40 33 40 18 0 38 -5 45 -12z"/>
<path d="M11245 1285 c-22 -21 -25 -33 -25 -90 0 -57 3 -69 25 -90 15 -16 35
-25 56 -25 20 0 42 -9 56 -22 18 -16 26 -19 35 -10 9 9 7 16 -6 31 -17 18 -17
22 -2 43 31 44 18 144 -23 175 -28 22 -89 16 -116 -12z m106 -21 c7 -9 13 -40
13 -69 0 -61 -15 -85 -55 -85 -36 0 -59 32 -59 85 0 22 7 51 16 63 18 26 65
30 85 6z"/>
<path d="M11890 1295 c0 -10 7 -15 18 -13 21 4 19 22 -2 26 -10 2 -16 -3 -16
-13z"/>
<path d="M12400 1195 l0 -115 50 0 c41 0 56 5 82 28 27 25 32 36 32 79 2 87
-33 123 -119 123 l-45 0 0 -115z m114 63 c9 -12 16 -42 16 -65 0 -52 -26 -83
-70 -83 l-30 0 0 85 0 85 34 0 c25 0 39 -7 50 -22z"/>
<path d="M12790 1274 c0 -9 -9 -18 -20 -21 -25 -7 -26 -19 0 -26 16 -4 19 -15
22 -73 3 -67 4 -69 31 -72 19 -2 27 1 27 12 0 9 -7 16 -15 16 -12 0 -15 13
-15 60 0 47 3 60 15 60 8 0 15 5 15 10 0 6 -7 10 -15 10 -8 0 -15 9 -15 20 0
11 -7 20 -15 20 -8 0 -15 -7 -15 -16z"/>
<path d="M6535 1252 c-31 -6 -45 -22 -45 -49 0 -20 9 -29 50 -46 28 -12 49
-26 47 -32 -6 -18 -48 -17 -68 1 -29 26 -48 3 -20 -25 41 -41 126 -18 119 32
-3 19 -18 30 -77 56 -18 9 -17 24 4 36 12 7 20 6 29 -7 13 -18 46 -25 46 -10
-1 26 -49 52 -85 44z"/>
<path d="M11653 1245 c-34 -15 -43 -31 -43 -84 0 -46 33 -81 76 -81 39 0 74
24 58 40 -8 8 -14 9 -18 1 -12 -19 -64 -13 -76 8 -15 30 -14 31 45 31 54 0 55
1 55 28 0 49 -48 78 -97 57z m55 -27 c22 -22 13 -38 -21 -38 -43 0 -51 9 -30
32 19 21 34 23 51 6z"/>
<path d="M11847 1253 c-4 -3 -20 -6 -37 -5 l-30 1 0 -85 c0 -67 3 -84 15 -84
10 0 15 16 17 62 3 57 5 64 31 76 15 7 27 17 27 22 0 12 -16 21 -23 13z"/>
<path d="M12003 1245 c-34 -15 -43 -31 -43 -84 0 -46 33 -81 76 -81 39 0 74
24 58 40 -8 8 -14 9 -18 1 -12 -19 -64 -13 -76 8 -15 30 -14 31 45 31 54 0 55
1 55 28 0 49 -48 78 -97 57z m55 -27 c22 -22 13 -38 -21 -38 -43 0 -51 9 -30
32 19 21 34 23 51 6z"/>
<path d="M12651 1250 c-13 -3 -30 -15 -39 -28 -13 -20 -13 -22 2 -22 10 0 24
7 33 15 19 20 47 16 51 -7 2 -12 -6 -19 -33 -24 -41 -7 -65 -27 -65 -54 0 -34
27 -49 85 -48 l55 2 0 61 c0 86 -28 120 -89 105z m47 -112 c-3 -25 -43 -37
-61 -19 -15 15 10 41 40 41 20 0 24 -4 21 -22z"/>
<path d="M5634 1229 c-13 -14 -19 -36 -19 -66 0 -53 28 -83 80 -83 37 0 65 24
48 41 -8 8 -13 7 -17 0 -9 -15 -49 -14 -64 1 -26 26 -13 38 44 38 l57 0 -7 32
c-9 45 -24 58 -66 58 -25 0 -43 -7 -56 -21z m74 -11 c23 -23 13 -38 -23 -38
-39 0 -48 21 -17 39 22 13 26 13 40 -1z"/>
<path d="M5796 1228 c-21 -29 -3 -57 45 -73 39 -14 50 -40 19 -48 -14 -3 -29
2 -41 14 -22 22 -39 25 -39 6 0 -45 96 -65 124 -26 24 35 -1 72 -56 83 -16 3
-28 12 -28 20 0 21 31 28 50 11 20 -18 40 -20 40 -2 0 41 -88 53 -114 15z"/>
<path d="M5950 1134 c0 -95 3 -114 15 -114 10 0 15 10 15 33 0 32 1 32 38 29
50 -5 74 21 74 82 1 66 -20 86 -88 85 l-54 -2 0 -113z m94 80 c20 -19 21 -78
2 -94 -8 -6 -25 -10 -38 -8 -19 3 -23 10 -26 48 -3 33 1 47 14 57 23 17 29 16
48 -3z"/>
<path d="M6148 1233 c-25 -28 -30 -60 -18 -98 30 -89 150 -65 150 30 0 49 -33
85 -79 85 -24 0 -44 -7 -53 -17z m72 -13 c41 -22 31 -110 -13 -110 -13 0 -28
5 -35 12 -17 17 -15 74 4 92 18 19 20 19 44 6z"/>
<path d="M6310 1164 c0 -68 3 -84 15 -84 12 0 15 13 15 59 0 50 4 62 21 75 37
26 49 11 49 -65 0 -62 2 -69 20 -69 18 0 20 6 19 58 -2 102 -5 107 -77 108
l-62 1 0 -83z"/>
<path d="M6664 1229 c-13 -14 -19 -36 -19 -66 0 -53 28 -83 80 -83 37 0 65 24
48 41 -8 8 -13 7 -17 0 -9 -15 -49 -14 -64 1 -26 26 -13 38 44 38 l57 0 -7 32
c-9 45 -24 58 -66 58 -25 0 -43 -7 -56 -21z m74 -11 c23 -23 13 -38 -23 -38
-39 0 -48 21 -17 39 22 13 26 13 40 -1z"/>
<path d="M11430 1193 c0 -32 6 -69 13 -83 11 -22 20 -25 70 -27 l57 -1 0 84
c0 68 -3 84 -15 84 -12 0 -15 -13 -15 -57 0 -69 -9 -86 -41 -81 -22 3 -24 8
-27 71 -3 59 -5 67 -22 67 -18 0 -20 -7 -20 -57z"/>
<path d="M11890 1165 c0 -69 3 -85 15 -85 12 0 15 16 15 85 0 69 -3 85 -15 85
-12 0 -15 -16 -15 -85z"/>
<path d="M12898 1239 c-19 -11 -25 -39 -8 -39 6 0 22 7 35 16 20 13 28 14 40
4 23 -19 18 -27 -22 -35 -49 -9 -63 -21 -63 -55 0 -39 18 -49 81 -49 l55 1 -4
72 c-2 39 -9 77 -14 84 -12 14 -76 16 -100 1z m82 -92 c0 -18 -21 -37 -41 -37
-22 0 -33 16 -25 35 7 19 66 20 66 2z"/>
</g>
</svg>
